Coordinates
version=1
nRows=14
nColumns=38
inDegrees=no

Units are S.I. units (second, meters, Newtons, ...)
If the header above contains a line with 'inDegrees', this indicates whether rotational values are in degrees (yes) or radians (no).

endheader
time	pelvis_tilt	pelvis_list	pelvis_rotation	pelvis_tx	pelvis_ty	pelvis_tz	hip_flexion_r	hip_adduction_r	hip_rotation_r	knee_angle_r	ankle_angle_r	subtalar_angle_r	mtp_angle_r	hip_flexion_l	hip_adduction_l	hip_rotation_l	knee_angle_l	ankle_angle_l	subtalar_angle_l	mtp_angle_l	lumbar_extension	lumbar_bending	lumbar_rotation	arm_flex_r	arm_add_r	arm_rot_r	elbow_flex_r	pro_sup_r	wrist_flex_r	wrist_dev_r	arm_flex_l	arm_add_l	arm_rot_l	elbow_flex_l	pro_sup_l	wrist_flex_l	wrist_dev_l
15	1.35166	1.42737	0.172062	0.731507	-0.183122	0.967105	0.334428	0.146826	-0.223798	0.387118	0.0415726	0	0	0.0902028	-0.189976	-0.17118	0.708043	0.265434	0	0	-0.0980495	0.253848	0.0535727	0.718654	-0.254739	0.409587	1.21796	1.5708	0	0	0.820966	-0.129047	0.624283	0.804593	1.5708	0	0
15.01	1.33876	1.42677	0.186343	0.730044	-0.18825	0.966614	0.341429	0.14455	-0.227345	0.385574	0.0397401	0	0	0.083562	-0.18576	-0.171114	0.708535	0.26426	0	0	-0.0952428	0.255146	0.0505166	0.720482	-0.256876	0.410883	1.21724	1.5708	0	0	0.819067	-0.125426	0.61488	0.804541	1.5708	0	0
15.02	1.31879	1.42603	0.207906	0.728562	-0.193521	0.966001	0.34988	0.141883	-0.231999	0.384464	0.0378085	0	0	0.0782058	-0.181423	-0.170872	0.70722	0.262308	0	0	-0.091413	0.256189	0.0475382	0.722363	-0.259466	0.412158	1.21668	1.5708	0	0	0.818553	-0.122598	0.61141	0.804244	1.5708	0	0
15.03	1.29793	1.42504	0.230579	0.727046	-0.198905	0.965341	0.358454	0.139212	-0.237206	0.382917	0.0355226	0	0	0.0729437	-0.176957	-0.170059	0.703228	0.256938	0	0	-0.0875275	0.257265	0.0444858	0.724379	-0.261911	0.412821	1.21597	1.5708	0	0	0.818619	-0.119904	0.609291	0.804073	1.5708	0	0
15.04	1.26654	1.42384	0.263734	0.725529	-0.204421	0.964526	0.368977	0.136101	-0.242424	0.381613	0.0332601	0	0	0.0691833	-0.17188	-0.169105	0.695981	0.245844	0	0	-0.0819845	0.258003	0.0409984	0.726644	-0.264	0.413984	1.21462	1.5708	0	0	0.818255	-0.117209	0.605346	0.804315	1.5708	0	0
15.05	1.2366	1.42223	0.295598	0.724002	-0.210083	0.963675	0.379272	0.133345	-0.247847	0.379692	0.0310076	0	0	0.0649935	-0.166943	-0.168243	0.685394	0.233191	0	0	-0.076684	0.258987	0.0368857	0.729871	-0.265859	0.416414	1.21275	1.5708	0	0	0.818278	-0.115135	0.601773	0.80477	1.5708	0	0
15.06	1.20029	1.42003	0.333907	0.722451	-0.215904	0.962686	0.390905	0.130612	-0.253151	0.377551	0.0286265	0	0	0.0618388	-0.161636	-0.166098	0.67254	0.227896	0	0	-0.0702772	0.259969	0.0324028	0.733698	-0.267394	0.419178	1.21013	1.5708	0	0	0.818478	-0.113224	0.598296	0.805084	1.5708	0	0
15.07	1.16289	1.41725	0.373249	0.720912	-0.22187	0.961601	0.403108	0.128153	-0.257984	0.3751	0.0257514	0	0	0.0584897	-0.156243	-0.163691	0.655455	0.229241	0	0	-0.0638587	0.261011	0.0281945	0.737799	-0.268924	0.421111	1.20774	1.5708	0	0	0.819331	-0.111446	0.595817	0.80549	1.5708	0	0
15.08	1.12448	1.41385	0.413507	0.719382	-0.227989	0.960401	0.416123	0.125874	-0.262566	0.372857	0.0232991	0	0	0.054744	-0.150781	-0.161717	0.632172	0.236664	0	0	-0.0573025	0.262143	0.0240745	0.742333	-0.270441	0.422919	1.20539	1.5708	0	0	0.82079	-0.109749	0.593457	0.806036	1.5708	0	0
15.09	1.0836	1.40988	0.45614	0.717877	-0.234259	0.959059	0.430264	0.123599	-0.267107	0.370969	0.0212925	0	0	0.0508189	-0.145134	-0.160364	0.601788	0.249705	0	0	-0.050248	0.263083	0.0200864	0.747261	-0.271822	0.425249	1.20289	1.5708	0	0	0.822851	-0.108023	0.590912	0.806513	1.5708	0	0
15.1	1.04168	1.40558	0.499708	0.716379	-0.240679	0.957605	0.445318	0.121086	-0.271914	0.369631	0.019643	0	0	0.0465878	-0.139121	-0.159193	0.56552	0.26516	0	0	-0.0429798	0.263655	0.0160893	0.752705	-0.272812	0.427479	1.2002	1.5708	0	0	0.825367	-0.106899	0.589174	0.807449	1.5708	0	0
15.11	0.997903	1.40128	0.545027	0.714908	-0.247264	0.956076	0.461365	0.117965	-0.276309	0.369014	0.0181755	0	0	0.0426767	-0.132333	-0.156825	0.527383	0.278553	0	0	-0.0356648	0.263337	0.0121142	0.758354	-0.273566	0.429458	1.19777	1.5708	0	0	0.828615	-0.106313	0.588501	0.808565	1.5708	0	0
15.12	0.954832	1.39744	0.589567	0.713472	-0.254039	0.954599	0.477324	0.114351	-0.279464	0.368189	0.0166565	0	0	0.0391812	-0.124709	-0.153435	0.490236	0.289396	0	0	-0.0292266	0.261842	0.008274	0.7643	-0.274027	0.431025	1.19538	1.5708	0	0	0.832833	-0.105906	0.588638	0.809227	1.5708	0	0
15.13	0.911379	1.39436	0.634547	0.712043	-0.260976	0.953219	0.493017	0.109873	-0.282056	0.367086	0.0151266	0	0	0.0367752	-0.115874	-0.148948	0.454339	0.296748	0	0	-0.0237173	0.25883	0.00458336	0.770368	-0.274134	0.431904	1.19252	1.5708	0	0	0.837877	-0.105442	0.589323	0.809644	1.5708	0	0
